<svg width="275" height="60" viewBox="0 0 275 60" fill="none" xmlns="http://www.w3.org/2000/svg">
<path d="M2.60733 41.1891C2.60733 41.1891 6.82118 53.5354 22.3036 58.7018C22.3036 58.7018 32.2436 62.8209 46.3306 56.3846C46.3306 56.3846 58.443 50.9564 62.2976 34.2625C62.2976 34.2625 61.5623 37.4013 56.1704 40.2783C56.1704 40.2783 57.9696 35.5882 58.2926 31.2908C58.2926 31.2908 52.4439 37.5434 45.367 33.608C45.367 33.608 41.4957 31.5387 38.8666 29.2716C38.8666 29.2716 34.4327 25.4226 30.9067 24.3058C30.9067 24.3058 25.5482 21.9774 20.4459 23.5594C18.7893 24.0965 17.2841 25.0199 16.0546 26.2533C14.8251 27.4867 13.9065 28.9947 13.3745 30.653C13.3745 30.653 16.4994 28.2801 19.3068 28.7313C19.3068 28.7313 23.9691 28.6199 26.5675 33.9979C26.5675 33.9979 27.4226 36.084 27.456 37.0894C25.885 36.9349 24.3106 37.3468 23.0165 38.2508C21.5527 39.3049 20.1513 40.4431 18.8194 41.6597C18.8194 41.6597 21.5544 39.4317 24.579 40.1419C25.4095 40.3382 26.2084 40.6504 26.9519 41.0693C26.9519 41.0693 26.2556 45.3082 20.6798 46.854C20.6798 46.854 8.58972 50.0652 2.61568 41.1863" fill="url(#paint0_linear_1_215)"/>
<path d="M56.1648 40.2783C55.8167 41.0609 55.5521 41.721 55.2374 42.3532C51.7245 49.3914 45.5653 54.7504 38.109 57.2563C32.7347 59.0272 26.9655 59.2205 21.4847 57.8133C21.3873 57.791 15.7419 55.7022 13.4219 54.2985C13.6335 54.2985 13.8146 54.2985 13.9789 54.3125C16.0705 54.4099 18.1036 54.591 20.1479 54.1537C23.2115 53.5103 25.8434 52.115 27.7902 49.5583C29.4028 47.4388 29.4195 44.8236 28.0464 42.654C26.5759 40.3173 23.2087 38.5766 18.7999 41.6653C18.7999 41.6653 19.8443 36.9724 26.7347 37.0476H27.52C27.7624 37.0476 28.0297 37.0476 28.2581 37.0699L28.5672 37.0922C30.5267 37.2776 32.4615 37.6659 34.3408 38.2508C36.4936 38.883 38.5713 39.7603 40.7465 40.3257C43.448 41.0275 46.1663 41.6068 48.9848 41.5929C51.4051 41.5929 53.7585 41.345 56.1648 40.2783Z" fill="url(#paint1_linear_1_215)"/>
<path d="M18.8111 41.6681C22.298 39.2228 25.1332 39.8049 26.8878 41.3088C27.3028 40.3113 27.5176 39.242 27.5201 38.1616C27.5191 37.7937 27.4939 37.4262 27.4449 37.0615L26.7597 37.0476C19.8555 36.9752 18.8111 41.6681 18.8111 41.6681Z" fill="#C6E8F3"/>
<path d="M24.9773 34.023C24.6458 33.8782 24.4759 33.803 24.306 33.7445C23.6183 33.4303 22.8582 33.3087 22.1068 33.3926C21.3554 33.4765 20.6408 33.7627 20.0393 34.2207C19.1536 34.8557 18.4156 35.6579 17.6051 36.3792C16.8973 37.0684 16.0139 37.55 15.0512 37.7717C14.538 37.8774 14.0069 37.8583 13.5026 37.716C13.1398 37.6295 12.8017 37.4606 12.5146 37.2224C12.2275 36.9842 11.999 36.6832 11.8469 36.3426C11.6947 36.002 11.623 35.6309 11.6373 35.2582C11.6515 34.8854 11.7514 34.5209 11.9291 34.1929C12.1069 33.8383 12.3359 33.5117 12.6086 33.2237C15.1821 30.4191 20.0783 29.8816 23.1753 32.0929C23.9035 32.6042 24.5172 33.2615 24.9773 34.023Z" fill="#2B72B8"/>
<path d="M3.58211 42.8406C2.49871 41.2949 1.87484 39.5347 1.35403 37.7522C-0.996595 29.8453 -0.317031 22.1947 3.74922 15.0091C8.34742 6.87662 15.3687 2.0194 24.579 0.417972C28.8171 -0.324088 33.1702 -0.0598269 37.2874 1.18944C39.9138 1.97763 42.4621 2.99976 44.7793 4.53157C46.4829 5.66484 48.0832 6.94632 49.5613 8.36108C52.9529 11.5826 55.4804 15.605 56.9112 20.0585C58.4124 24.5843 56.0423 29.0349 51.458 30.3773C49.3229 31.0205 47.0385 30.9678 44.9353 30.2269C42.2226 29.2939 40.546 27.3638 39.5935 24.7152C38.9111 22.8185 38.5602 20.8411 38.0867 18.8915C37.669 17.1676 37.1593 15.4742 36.2291 13.9452C34.7975 11.5918 32.6084 10.3664 29.9542 9.9458C26.1498 9.34144 22.5514 10.1491 19.2873 12.0931C11.9151 16.4852 8.06334 23.0024 8.00485 31.6417C7.98434 34.1655 8.5668 36.6576 9.70376 38.9109C12.0432 43.5787 15.8783 46.0184 21.0308 46.464L21.5321 46.503C21.2749 46.6834 20.9793 46.8016 20.6687 46.8484C18.0658 47.54 15.3505 47.702 12.6838 47.3246C10.5904 47.0624 8.56805 46.3955 6.72928 45.3611C5.57151 44.6665 4.51288 43.8187 3.58211 42.8406Z" fill="url(#paint2_linear_1_215)"/>
<path d="M56.9112 20.0585C55.4804 15.605 52.9529 11.5826 49.5613 8.36108C48.0834 6.94439 46.4832 5.66104 44.7793 4.52599C42.4621 2.99976 39.9138 1.97762 37.2874 1.18387C33.1676 -0.0667216 28.8114 -0.330992 24.5706 0.412398C15.3603 2.01383 8.33906 6.87105 3.74086 15.0035C0.824858 20.1615 -0.350454 25.5591 0.0895917 31.1181C1.62975 26.9098 4.54575 22.501 8.60086 18.6409C13.4971 13.9898 19.0979 11.0598 24.0832 10.138C26.0096 9.6962 28.0034 9.63189 29.9542 9.94858C32.6084 10.3747 34.7975 11.6001 36.2291 13.9536C37.1593 15.4826 37.669 17.1759 38.0867 18.8999C38.5602 20.8495 38.9223 22.8269 39.5935 24.7235C40.546 27.3722 42.2198 29.3023 44.9353 30.2353C47.0385 30.9762 49.3229 31.0289 51.458 30.3857C56.0423 29.0432 58.4124 24.5926 56.9112 20.0585Z" fill="url(#paint3_linear_1_215)"/>
<g clip-path="url(#clip0_1_215)">
<path d="M87.7483 21.1492V22.5753C87.7932 23.7228 87.5973 24.8671 87.173 25.9348C86.7488 27.0025 86.1055 27.97 85.2846 28.7754C84.4319 29.5657 83.4298 30.1783 82.3369 30.5775C81.2439 30.9768 80.082 31.1546 78.9193 31.1005C77.6482 31.1395 76.3824 30.9205 75.1987 30.4568C74.015 29.9932 72.9381 29.2946 72.0333 28.4034C71.1501 27.555 70.4514 26.5343 69.9807 25.405C69.5101 24.2756 69.2775 23.0618 69.2976 21.839C69.2728 20.6091 69.4999 19.3871 69.9649 18.2478C70.43 17.1084 71.1232 16.0756 72.0022 15.2126C72.8765 14.3272 73.9233 13.6297 75.0782 13.1632C76.233 12.6966 77.4715 12.4709 78.7172 12.5C80.3132 12.4835 81.8867 12.8758 83.2872 13.6393C84.6175 14.3425 85.7341 15.3891 86.5203 16.6696L83.5203 18.4134C83.0558 17.6452 82.382 17.0243 81.5773 16.6231C80.6897 16.155 79.6979 15.9177 78.6939 15.9333C77.9116 15.9073 77.1323 16.0426 76.4048 16.3306C75.6773 16.6187 75.0173 17.0533 74.4659 17.6074C73.9178 18.1647 73.4886 18.827 73.2041 19.5543C72.9195 20.2816 72.7857 21.0587 72.8105 21.839C72.7874 22.6148 72.9253 23.387 73.2155 24.1072C73.5057 24.8274 73.942 25.48 74.497 26.0241C75.0899 26.5838 75.7898 27.0184 76.555 27.3021C77.3202 27.5857 78.1349 27.7125 78.9504 27.6749C80.1484 27.722 81.3326 27.4058 82.3467 26.7681C83.2374 26.1814 83.888 25.2962 84.1809 24.2726H78.7405V21.1725L87.7483 21.1492Z" fill="#199DD9"/>
<path d="M105.383 28.4345C104.519 29.3044 103.486 29.9895 102.348 30.4479C101.209 30.9063 99.9887 31.1284 98.7612 31.1005C97.5337 31.125 96.3142 30.8982 95.178 30.4344C94.0418 29.9705 93.0129 29.2793 92.155 28.4035C91.2757 27.5452 90.5814 26.5167 90.115 25.3812C89.6486 24.2457 89.4198 23.0271 89.4426 21.8003C89.4185 20.571 89.6467 19.3497 90.1132 18.2115C90.5796 17.0733 91.2745 16.0423 92.155 15.1816C93.0143 14.3086 94.0437 13.6203 95.1798 13.1591C96.316 12.6979 97.5348 12.4736 98.7612 12.5C99.991 12.4762 101.213 12.7032 102.351 13.167C103.49 13.6307 104.522 14.3216 105.383 15.1971C106.264 16.0545 106.96 17.0826 107.428 18.2182C107.896 19.3538 108.125 20.5728 108.103 21.8003C108.13 23.033 107.903 24.2581 107.435 25.3994C106.967 26.5407 106.268 27.5738 105.383 28.4345ZM94.6265 26.0242C95.4445 26.8526 96.4938 27.4163 97.6376 27.6418C98.7814 27.8673 99.9668 27.7441 101.039 27.2884C102.112 26.8326 103.022 26.0653 103.651 25.0864C104.28 24.1076 104.6 22.9625 104.567 21.8003C104.592 21.0198 104.456 20.2425 104.169 19.5162C103.882 18.7898 103.448 18.1297 102.896 17.5764C101.784 16.5117 100.303 15.9171 98.7612 15.9171C97.2198 15.9171 95.7382 16.5117 94.6265 17.5764C94.0754 18.1303 93.6435 18.7907 93.3575 19.5171C93.0715 20.2434 92.9374 21.0204 92.9633 21.8003C92.9341 22.5806 93.0668 23.3585 93.353 24.0853C93.6392 24.8121 94.0727 25.4721 94.6265 26.0242Z" fill="#199DD9"/>
<path d="M117.733 12.8565C118.886 12.8293 120.032 13.046 121.096 13.4921C122.16 13.9383 123.116 14.6038 123.904 15.4451C124.717 16.289 125.354 17.285 125.78 18.3757C126.205 19.4664 126.41 20.6303 126.383 21.8003C126.412 22.9729 126.208 24.1396 125.783 25.2331C125.357 26.3266 124.719 27.3252 123.904 28.171C123.116 29.0122 122.16 29.6778 121.096 30.124C120.032 30.5701 118.886 30.7867 117.733 30.7595H110.598V12.8565H117.733ZM117.733 27.3959C118.439 27.4211 119.143 27.2959 119.797 27.0286C120.451 26.7613 121.04 26.3581 121.525 25.8459C122.025 25.3008 122.411 24.663 122.664 23.9688C122.916 23.2747 123.028 22.5378 122.994 21.8003C123.057 20.3162 122.529 18.8675 121.525 17.7702C121.04 17.2579 120.451 16.8547 119.797 16.5875C119.143 16.3202 118.439 16.1949 117.733 16.2201H114.134V27.3804L117.733 27.3959Z" fill="#199DD9"/>
<path d="M140.062 30.7751L138.919 27.551H131.536L130.463 30.7751H126.639L132.927 12.8566H137.318L143.652 30.7751H140.062ZM132.694 24.2494H137.753L135.157 16.9254L132.694 24.2494Z" fill="#199DD9"/>
<path d="M148.813 30.7751L142.782 12.8566H146.668L151.067 26.6365L155.38 12.8566H159.266L153.235 30.7751H148.813Z" fill="#199DD9"/>
<path d="M171.763 30.7751L170.621 27.551H163.238L162.157 30.7751H158.333L164.621 12.8566H169.012L175.354 30.7751H171.763ZM164.388 24.2494H169.447L166.852 16.9254L164.388 24.2494Z" fill="#199DD9"/>
<path d="M186.95 30.7751L183.32 24.5749H180.639V30.7751H177.095V12.8566H184.323C185.111 12.8436 185.893 12.9916 186.622 13.2915C187.35 13.5914 188.009 14.0368 188.559 14.6004C189.12 15.1444 189.563 15.7968 189.863 16.5178C190.162 17.2387 190.311 18.013 190.3 18.7932C190.308 19.8988 189.977 20.9804 189.352 21.8933C188.736 22.8298 187.865 23.5718 186.841 24.0324L190.813 30.7906L186.95 30.7751ZM180.639 16.1582V21.4593H184.323C184.648 21.4609 184.97 21.3925 185.267 21.2588C185.563 21.125 185.827 20.9291 186.041 20.6843C186.519 20.1746 186.778 19.4988 186.763 18.801C186.778 18.1078 186.519 17.4367 186.041 16.9332C185.827 16.6888 185.563 16.4931 185.266 16.3594C184.97 16.2257 184.648 16.157 184.323 16.1582H180.639Z" fill="#199DD9"/>
<path d="M192.872 12.8566H196.416V30.7751H192.872V12.8566Z" fill="#199DD9"/>
<path d="M209.621 30.7751L204.864 12.8566H208.572L212.03 26.1404L215.776 12.8566H218.846L222.608 26.1094L226.02 12.8566H229.401L224.737 30.7751H220.712L217.276 18.8862L213.895 30.7751H209.621Z" fill="#199DD9"/>
<path d="M242.613 30.7751L241.47 27.551H234.064L232.991 30.7751H229.167L235.439 12.8566H239.823L246.165 30.7751H242.613ZM235.245 24.2494H240.281L237.693 16.9254L235.245 24.2494Z" fill="#199DD9"/>
<path d="M251.325 30.7751L245.294 12.8566H249.18L253.571 26.6365L257.893 12.8566H261.779L255.717 30.7751H251.325Z" fill="#199DD9"/>
<path d="M267.033 27.396H274.602V30.7751H263.489V12.8566H274.478V16.2357H267.033V20.0488H273.833V23.3504H267.033V27.396Z" fill="#199DD9"/>
<path d="M87.7483 21.1492V22.5753C87.7932 23.7228 87.5973 24.8671 87.173 25.9348C86.7488 27.0025 86.1055 27.97 85.2846 28.7754C84.4319 29.5657 83.4298 30.1783 82.3369 30.5775C81.2439 30.9768 80.082 31.1546 78.9193 31.1005C77.6482 31.1395 76.3824 30.9205 75.1987 30.4568C74.015 29.9932 72.9381 29.2946 72.0333 28.4034C71.1501 27.555 70.4514 26.5343 69.9807 25.405C69.5101 24.2756 69.2775 23.0618 69.2976 21.839C69.2728 20.6091 69.4999 19.3871 69.9649 18.2478C70.43 17.1084 71.1232 16.0756 72.0022 15.2126C72.8765 14.3272 73.9233 13.6297 75.0782 13.1632C76.233 12.6966 77.4715 12.4709 78.7172 12.5C80.3132 12.4835 81.8867 12.8758 83.2872 13.6393C84.6175 14.3425 85.7341 15.3891 86.5203 16.6696L83.5203 18.4134C83.0558 17.6452 82.382 17.0243 81.5773 16.6231C80.6897 16.155 79.6979 15.9177 78.6939 15.9333C77.9116 15.9073 77.1323 16.0426 76.4048 16.3306C75.6773 16.6187 75.0173 17.0533 74.4659 17.6074C73.9178 18.1647 73.4886 18.827 73.2041 19.5543C72.9195 20.2816 72.7857 21.0587 72.8105 21.839C72.7874 22.6148 72.9253 23.387 73.2155 24.1072C73.5057 24.8274 73.942 25.48 74.497 26.0241C75.0899 26.5838 75.7898 27.0184 76.555 27.3021C77.3202 27.5857 78.1349 27.7125 78.9504 27.6749C80.1484 27.722 81.3326 27.4058 82.3467 26.7681C83.2374 26.1814 83.888 25.2962 84.1809 24.2726H78.7405V21.1725L87.7483 21.1492Z" fill="url(#paint4_linear_1_215)"/>
<path d="M105.383 28.4345C104.519 29.3044 103.486 29.9895 102.348 30.4479C101.209 30.9063 99.9887 31.1284 98.7612 31.1005C97.5337 31.125 96.3142 30.8982 95.178 30.4344C94.0418 29.9705 93.0129 29.2793 92.155 28.4035C91.2757 27.5452 90.5814 26.5167 90.115 25.3812C89.6486 24.2457 89.4198 23.0271 89.4426 21.8003C89.4185 20.571 89.6467 19.3497 90.1132 18.2115C90.5796 17.0733 91.2745 16.0423 92.155 15.1816C93.0143 14.3086 94.0437 13.6203 95.1798 13.1591C96.316 12.6979 97.5348 12.4736 98.7612 12.5C99.991 12.4762 101.213 12.7032 102.351 13.167C103.49 13.6307 104.522 14.3216 105.383 15.1971C106.264 16.0545 106.96 17.0826 107.428 18.2182C107.896 19.3538 108.125 20.5728 108.103 21.8003C108.13 23.033 107.903 24.2581 107.435 25.3994C106.967 26.5407 106.268 27.5738 105.383 28.4345ZM94.6265 26.0242C95.4445 26.8526 96.4938 27.4163 97.6376 27.6418C98.7814 27.8673 99.9668 27.7441 101.039 27.2884C102.112 26.8326 103.022 26.0653 103.651 25.0864C104.28 24.1076 104.6 22.9625 104.567 21.8003C104.592 21.0198 104.456 20.2425 104.169 19.5162C103.882 18.7898 103.448 18.1297 102.896 17.5764C101.784 16.5117 100.303 15.9171 98.7612 15.9171C97.2198 15.9171 95.7382 16.5117 94.6265 17.5764C94.0754 18.1303 93.6435 18.7907 93.3575 19.5171C93.0715 20.2434 92.9374 21.0204 92.9633 21.8003C92.9341 22.5806 93.0668 23.3585 93.353 24.0853C93.6392 24.8121 94.0727 25.4721 94.6265 26.0242Z" fill="url(#paint5_linear_1_215)"/>
<path d="M117.733 12.8565C118.886 12.8293 120.032 13.046 121.096 13.4921C122.16 13.9383 123.116 14.6038 123.904 15.4451C124.717 16.289 125.354 17.285 125.78 18.3757C126.205 19.4664 126.41 20.6303 126.383 21.8003C126.412 22.9729 126.208 24.1396 125.783 25.2331C125.357 26.3266 124.719 27.3252 123.904 28.171C123.116 29.0122 122.16 29.6778 121.096 30.124C120.032 30.5701 118.886 30.7867 117.733 30.7595H110.598V12.8565H117.733ZM117.733 27.3959C118.439 27.4211 119.143 27.2959 119.797 27.0286C120.451 26.7613 121.04 26.3581 121.525 25.8459C122.025 25.3008 122.411 24.663 122.664 23.9688C122.916 23.2747 123.028 22.5378 122.994 21.8003C123.057 20.3162 122.529 18.8675 121.525 17.7702C121.04 17.2579 120.451 16.8547 119.797 16.5875C119.143 16.3202 118.439 16.1949 117.733 16.2201H114.134V27.3804L117.733 27.3959Z" fill="url(#paint6_linear_1_215)"/>
<path d="M140.062 30.7751L138.919 27.551H131.536L130.463 30.7751H126.639L132.927 12.8566H137.318L143.652 30.7751H140.062ZM132.694 24.2494H137.753L135.157 16.9254L132.694 24.2494Z" fill="url(#paint7_linear_1_215)"/>
<path d="M148.813 30.7751L142.782 12.8566H146.668L151.067 26.6365L155.38 12.8566H159.266L153.235 30.7751H148.813Z" fill="url(#paint8_linear_1_215)"/>
<path d="M171.763 30.7751L170.621 27.551H163.238L162.157 30.7751H158.333L164.621 12.8566H169.012L175.354 30.7751H171.763ZM164.388 24.2494H169.447L166.852 16.9254L164.388 24.2494Z" fill="url(#paint9_linear_1_215)"/>
<path d="M186.95 30.7751L183.32 24.5749H180.639V30.7751H177.095V12.8566H184.323C185.111 12.8436 185.893 12.9916 186.622 13.2915C187.35 13.5914 188.009 14.0368 188.559 14.6004C189.12 15.1444 189.563 15.7968 189.863 16.5178C190.162 17.2387 190.311 18.013 190.3 18.7932C190.308 19.8988 189.977 20.9804 189.352 21.8933C188.736 22.8298 187.865 23.5718 186.841 24.0324L190.813 30.7906L186.95 30.7751ZM180.639 16.1582V21.4593H184.323C184.648 21.4609 184.97 21.3925 185.267 21.2588C185.563 21.125 185.827 20.9291 186.041 20.6843C186.519 20.1746 186.778 19.4988 186.763 18.801C186.778 18.1078 186.519 17.4367 186.041 16.9332C185.827 16.6888 185.563 16.4931 185.266 16.3594C184.97 16.2257 184.648 16.157 184.323 16.1582H180.639Z" fill="url(#paint10_linear_1_215)"/>
<path d="M192.872 12.8566H196.416V30.7751H192.872V12.8566Z" fill="url(#paint11_linear_1_215)"/>
<path d="M209.621 30.7751L204.864 12.8566H208.572L212.03 26.1404L215.776 12.8566H218.846L222.608 26.1094L226.02 12.8566H229.401L224.737 30.7751H220.712L217.276 18.8862L213.895 30.7751H209.621Z" fill="url(#paint12_linear_1_215)"/>
<path d="M242.613 30.7751L241.47 27.551H234.064L232.991 30.7751H229.167L235.439 12.8566H239.823L246.165 30.7751H242.613ZM235.245 24.2494H240.281L237.693 16.9254L235.245 24.2494Z" fill="url(#paint13_linear_1_215)"/>
<path d="M251.325 30.7751L245.294 12.8566H249.18L253.571 26.6365L257.893 12.8566H261.779L255.717 30.7751H251.325Z" fill="url(#paint14_linear_1_215)"/>
<path d="M267.033 27.396H274.602V30.7751H263.489V12.8566H274.478V16.2357H267.033V20.0488H273.833V23.3504H267.033V27.396Z" fill="url(#paint15_linear_1_215)"/>
<path d="M78.7017 38.223V39.3701H75.997V47.376H74.8002V39.3701H72.1111V38.223H78.7017Z" fill="#434243"/>
<path d="M84.0644 46.1903H88.3079V47.376H82.8675V38.223H88.2613V39.3701H84.0644V42.1679H87.9504V43.2994H84.0644V46.1903Z" fill="#434243"/>
<path d="M96.9892 47.5C96.351 47.5258 95.7141 47.4227 95.1168 47.197C94.5196 46.9712 93.9742 46.6274 93.5135 46.1862C93.0528 45.745 92.6862 45.2156 92.4358 44.6296C92.1854 44.0436 92.0564 43.4132 92.0564 42.7763C92.0564 42.1393 92.1854 41.5089 92.4358 40.923C92.6862 40.337 93.0528 39.8075 93.5135 39.3663C93.9742 38.9252 94.5196 38.5814 95.1168 38.3556C95.7141 38.1298 96.351 38.0267 96.9892 38.0525C97.8069 38.0405 98.6125 38.2494 99.3208 38.657C100.002 39.0384 100.568 39.5951 100.961 40.2691L99.9037 40.8813C99.6373 40.3742 99.2298 39.9544 98.7301 39.6723C98.2071 39.3756 97.6142 39.2231 97.0125 39.2306C96.5365 39.2122 96.0619 39.293 95.619 39.4678C95.176 39.6427 94.7745 39.9076 94.44 40.2458C93.9328 40.7446 93.5873 41.3837 93.4483 42.0804C93.3093 42.7771 93.3831 43.4993 93.6601 44.1538C93.9372 44.8082 94.4048 45.3647 95.0025 45.7512C95.6001 46.1377 96.3003 46.3366 97.0125 46.322C97.6149 46.3267 98.2077 46.1716 98.7301 45.8725C99.2274 45.5943 99.6345 45.1802 99.9037 44.679L100.961 45.2757C100.574 45.9532 100.01 46.513 99.3286 46.8955C98.6172 47.3024 97.8092 47.5111 96.9892 47.5Z" fill="#434243"/>
<path d="M110.932 38.223H112.129V47.376H110.932V43.2374H106.494V47.376H105.282V38.223H106.494V42.0981H110.932V38.223Z" fill="#434243"/>
<path d="M122.738 38.223H123.95V47.376H122.971L118.308 40.5713V47.376H117.064V38.223H117.997L122.738 45.051V38.223Z" fill="#434243"/>
<path d="M136.486 46.1205C135.586 46.9553 134.397 47.4095 133.168 47.3877C131.939 47.3659 130.766 46.8697 129.896 46.0034C129.027 45.1372 128.528 43.9684 128.505 42.7429C128.481 41.5173 128.935 40.3305 129.771 39.432C130.672 38.5972 131.861 38.143 133.09 38.1648C134.319 38.1866 135.492 38.6828 136.361 39.5491C137.231 40.4153 137.73 41.5841 137.753 42.8096C137.777 44.0352 137.323 45.222 136.486 46.1205ZM130.611 45.299C131.282 45.9555 132.185 46.3233 133.125 46.3233C134.065 46.3233 134.968 45.9555 135.639 45.299C136.288 44.6166 136.649 43.7124 136.649 42.7724C136.649 41.8324 136.288 40.9282 135.639 40.2458C134.965 39.5948 134.064 39.2307 133.125 39.2307C132.187 39.2307 131.285 39.5948 130.611 40.2458C129.963 40.9282 129.601 41.8324 129.601 42.7724C129.601 43.7124 129.963 44.6166 130.611 45.299Z" fill="#434243"/>
<path d="M143.512 46.1903H147.453V47.376H142.3V38.223H143.512V46.1903Z" fill="#434243"/>
<path d="M158.613 46.1205C157.953 46.7856 157.109 47.2394 156.188 47.4242C155.268 47.609 154.314 47.5163 153.447 47.1579C152.579 46.7995 151.839 46.1918 151.32 45.4121C150.8 44.6324 150.526 43.7162 150.53 42.7802C150.531 42.0044 150.724 41.2408 151.091 40.557C151.459 39.8732 151.99 39.2902 152.637 38.8596C153.284 38.4291 154.027 38.1643 154.802 38.0886C155.576 38.0129 156.357 38.1286 157.076 38.4256C157.794 38.7226 158.429 39.1917 158.922 39.7914C159.416 40.391 159.753 41.1027 159.905 41.8635C160.057 42.6243 160.019 43.4108 159.794 44.1533C159.568 44.8958 159.163 45.5715 158.613 46.1205ZM152.745 45.299C153.415 45.955 154.317 46.3226 155.256 46.3226C156.195 46.3226 157.096 45.955 157.766 45.299C158.414 44.6166 158.776 43.7124 158.776 42.7724C158.776 41.8324 158.414 40.9282 157.766 40.2458C157.093 39.5953 156.193 39.2315 155.256 39.2315C154.319 39.2315 153.418 39.5953 152.745 40.2458C152.097 40.9282 151.736 41.8324 151.736 42.7724C151.736 43.7124 152.097 44.6166 152.745 45.299Z" fill="#434243"/>
<path d="M173.232 42.8189V43.3614C173.249 43.9126 173.149 44.4611 172.938 44.9712C172.728 45.4813 172.413 45.9415 172.012 46.322C171.578 46.7214 171.069 47.0311 170.514 47.2333C169.959 47.4355 169.369 47.5261 168.779 47.5C168.139 47.5204 167.502 47.4092 166.907 47.1731C166.312 46.9371 165.772 46.5814 165.321 46.1282C164.449 45.2305 163.961 44.0298 163.961 42.7801C163.961 41.5305 164.449 40.3298 165.321 39.432C166.068 38.7039 167.032 38.2354 168.068 38.0958C169.103 37.9562 170.157 38.153 171.072 38.657C171.748 39.0353 172.312 39.5863 172.704 40.2536L171.662 40.8658C171.39 40.3643 170.98 39.9504 170.481 39.6723C169.949 39.3771 169.349 39.2248 168.74 39.2305C168.264 39.2122 167.79 39.293 167.347 39.4678C166.904 39.6426 166.502 39.9076 166.168 40.2458C165.837 40.5789 165.577 40.975 165.404 41.4104C165.23 41.8458 165.146 42.3117 165.157 42.7801C165.146 43.2481 165.231 43.7135 165.406 44.1479C165.581 44.5822 165.843 44.9765 166.175 45.3067C166.517 45.6439 166.924 45.9079 167.372 46.0825C167.82 46.257 168.299 46.3386 168.779 46.322C169.576 46.3596 170.361 46.1214 171.002 45.6477C171.553 45.2208 171.92 44.5997 172.028 43.9117H168.678V42.8189H173.232Z" fill="#434243"/>
<path d="M177.686 38.223H178.883V47.376H177.67L177.686 38.223Z" fill="#434243"/>
<path d="M185.046 46.1903H189.289V47.376H183.849V38.223H189.235V39.3701H185.061V42.1679H188.909V43.2994H185.061L185.046 46.1903Z" fill="#434243"/>
<path d="M196.673 47.5C195.899 47.5233 195.136 47.3155 194.481 46.9033C193.887 46.5146 193.441 45.9389 193.214 45.268L194.256 44.6634C194.403 45.022 194.627 45.3443 194.912 45.6082C195.197 45.8722 195.535 46.0714 195.905 46.1922C196.274 46.313 196.665 46.3525 197.052 46.308C197.438 46.2636 197.81 46.1361 198.142 45.9345C198.3 45.8159 198.428 45.6611 198.515 45.4832C198.601 45.3052 198.644 45.1092 198.639 44.9114C198.649 44.7195 198.608 44.5284 198.521 44.3571C198.434 44.1858 198.303 44.0402 198.142 43.9349C197.619 43.6398 197.064 43.4083 196.486 43.2452L195.608 42.9506C195.341 42.8595 195.081 42.7481 194.831 42.6174C194.579 42.5012 194.35 42.3411 194.155 42.1446C193.775 41.7179 193.57 41.1648 193.579 40.5946C193.572 40.2433 193.644 39.8948 193.791 39.5753C193.937 39.2558 194.155 38.9737 194.427 38.75C194.997 38.2775 195.722 38.0294 196.463 38.0525C197.132 38.0395 197.788 38.2315 198.344 38.6028C198.875 38.9593 199.292 39.4593 199.548 40.0443L198.538 40.6333C198.39 40.2079 198.107 39.8417 197.734 39.5889C197.36 39.3362 196.914 39.2105 196.463 39.2305C196.031 39.2071 195.604 39.3361 195.258 39.5948C195.109 39.7106 194.989 39.8604 194.909 40.0316C194.83 40.2027 194.792 40.3905 194.8 40.5791C194.79 40.7556 194.825 40.9317 194.901 41.0914C194.977 41.2511 195.092 41.3893 195.235 41.4936C195.697 41.776 196.197 41.9925 196.719 42.1369L197.248 42.3306L197.745 42.5011C197.971 42.5786 198.134 42.6484 198.235 42.6949L198.662 42.9196C198.806 42.9922 198.939 43.0834 199.059 43.1909L199.362 43.5087C199.468 43.6226 199.555 43.7536 199.618 43.8962C199.675 44.0421 199.719 44.1925 199.75 44.3457C199.795 44.5229 199.816 44.7054 199.813 44.8882C199.826 45.2524 199.754 45.6147 199.601 45.9459C199.449 46.2771 199.22 46.5678 198.934 46.7948C198.286 47.2863 197.486 47.5359 196.673 47.5Z" fill="#434243"/>
<path d="M213.787 38.223C214.369 38.2242 214.937 38.3964 215.422 38.718C215.906 39.0396 216.285 39.4965 216.51 40.0315C216.736 40.5665 216.798 41.1559 216.69 41.7261C216.581 42.2963 216.307 42.8219 215.901 43.2374C215.624 43.5136 215.294 43.7309 214.931 43.8761C214.567 44.0213 214.178 44.0914 213.787 44.0822H211.688V47.376H210.476V38.223H213.787ZM213.787 42.9507C214.021 42.9576 214.255 42.915 214.472 42.8255C214.689 42.736 214.885 42.6017 215.046 42.4314C215.361 42.0781 215.535 41.6216 215.535 41.1487C215.535 40.6758 215.361 40.2194 215.046 39.8661C214.883 39.6984 214.687 39.5663 214.47 39.4782C214.253 39.3901 214.021 39.348 213.787 39.3546H211.688V42.9507H213.787Z" fill="#434243"/>
<path d="M225.6 40.8271H226.828L224.217 47.376H222.888L220.276 40.8658H221.504L223.548 46.1515L225.6 40.8271Z" fill="#434243"/>
<path d="M234.312 41.9509H232.579V45.4772C232.556 45.7196 232.622 45.9622 232.766 46.1593C232.843 46.2321 232.935 46.2883 233.036 46.3243C233.136 46.3603 233.242 46.3753 233.349 46.3685C233.613 46.3685 233.932 46.3685 234.312 46.3685V47.376C233.58 47.5383 232.814 47.451 232.136 47.128C231.887 46.9382 231.692 46.6867 231.571 46.3984C231.45 46.1102 231.406 45.7952 231.445 45.485V41.9509H230.178V40.8271H231.468V39.3468L232.603 39.0058V40.8271H234.336L234.312 41.9509Z" fill="#434243"/>
<path d="M246.242 46.1903H250.183V47.376H245.03V38.223H246.242V46.1903Z" fill="#434243"/>
<path d="M257.66 41.9509H255.926V45.4772C255.903 45.7196 255.97 45.9622 256.113 46.1593C256.191 46.2321 256.282 46.2883 256.383 46.3243C256.483 46.3603 256.589 46.3753 256.696 46.3685C256.952 46.3685 257.279 46.3685 257.66 46.3685V47.376C256.927 47.5389 256.16 47.4515 255.483 47.128C255.233 46.9393 255.037 46.6879 254.916 46.3993C254.794 46.1108 254.751 45.7954 254.792 45.485V41.9509H253.494V40.8271H254.792V39.3468L255.926 39.0058V40.8271H257.66V41.9509Z" fill="#434243"/>
<path d="M267.056 38.223H268.191V47.376H267.056V46.2135C266.794 46.6263 266.428 46.9628 265.994 47.1888C265.56 47.4148 265.074 47.5221 264.584 47.5C264.148 47.5073 263.714 47.4227 263.313 47.2518C262.911 47.0808 262.55 46.8274 262.253 46.508C261.628 45.8538 261.28 44.9853 261.28 44.0822C261.28 43.1791 261.628 42.3105 262.253 41.6564C262.549 41.3356 262.91 41.0807 263.312 40.9084C263.713 40.7361 264.147 40.6503 264.584 40.6566C265.074 40.6369 265.56 40.7461 265.994 40.9734C266.428 41.2006 266.794 41.5377 267.056 41.9509V38.223ZM264.724 46.4073C265.031 46.4144 265.336 46.359 265.621 46.2444C265.906 46.1298 266.164 45.9584 266.38 45.7407C266.809 45.2947 267.049 44.7004 267.049 44.0822C267.049 43.4639 266.809 42.8696 266.38 42.4236C266.163 42.2069 265.906 42.0349 265.622 41.9175C265.339 41.8002 265.035 41.7398 264.728 41.7398C264.421 41.7398 264.117 41.8002 263.834 41.9175C263.551 42.0349 263.293 42.2069 263.077 42.4236C262.746 42.748 262.519 43.1634 262.426 43.6168C262.333 44.0702 262.378 44.5409 262.555 44.9688C262.732 45.3966 263.033 45.762 263.419 46.0183C263.806 46.2745 264.26 46.41 264.724 46.4073Z" fill="#434243"/>
</g>
<defs>
<linearGradient id="paint0_linear_1_215" x1="23.2424" y1="68.7768" x2="53.8038" y2="-24.5536" gradientUnits="userSpaceOnUse">
<stop stop-color="#5367AF"/>
<stop offset="1" stop-color="#2A72B8"/>
</linearGradient>
<linearGradient id="paint1_linear_1_215" x1="0.466816" y1="35.9862" x2="63.0658" y2="31.0877" gradientUnits="userSpaceOnUse">
<stop stop-color="#B3E3F9"/>
<stop offset="1" stop-color="#2A72B8"/>
</linearGradient>
<linearGradient id="paint2_linear_1_215" x1="1.26698" y1="72.3184" x2="47.1618" y2="22.1344" gradientUnits="userSpaceOnUse">
<stop offset="0.17" stop-color="#9AADD8"/>
<stop offset="0.55" stop-color="#7585C0"/>
<stop offset="0.82" stop-color="#5E6CB1"/>
</linearGradient>
<linearGradient id="paint3_linear_1_215" x1="0.000468491" y1="15.5633" x2="57.3596" y2="15.5633" gradientUnits="userSpaceOnUse">
<stop stop-color="#ABC1E4"/>
<stop offset="1" stop-color="#64C4EF"/>
</linearGradient>
<linearGradient id="paint4_linear_1_215" x1="119.909" y1="-32.552" x2="228.698" y2="76.5507" gradientUnits="userSpaceOnUse">
<stop stop-color="#70ACD9"/>
<stop offset="0.05" stop-color="#6DA8D7"/>
<stop offset="0.68" stop-color="#4A7DBE"/>
<stop offset="1" stop-color="#3D6DB4"/>
</linearGradient>
<linearGradient id="paint5_linear_1_215" x1="119.909" y1="-32.552" x2="228.698" y2="76.5507" gradientUnits="userSpaceOnUse">
<stop stop-color="#70ACD9"/>
<stop offset="0.05" stop-color="#6DA8D7"/>
<stop offset="0.68" stop-color="#4A7DBE"/>
<stop offset="1" stop-color="#3D6DB4"/>
</linearGradient>
<linearGradient id="paint6_linear_1_215" x1="119.909" y1="-32.552" x2="228.698" y2="76.5507" gradientUnits="userSpaceOnUse">
<stop stop-color="#70ACD9"/>
<stop offset="0.05" stop-color="#6DA8D7"/>
<stop offset="0.68" stop-color="#4A7DBE"/>
<stop offset="1" stop-color="#3D6DB4"/>
</linearGradient>
<linearGradient id="paint7_linear_1_215" x1="119.909" y1="-32.552" x2="228.698" y2="76.5508" gradientUnits="userSpaceOnUse">
<stop stop-color="#70ACD9"/>
<stop offset="0.05" stop-color="#6DA8D7"/>
<stop offset="0.68" stop-color="#4A7DBE"/>
<stop offset="1" stop-color="#3D6DB4"/>
</linearGradient>
<linearGradient id="paint8_linear_1_215" x1="119.909" y1="-32.552" x2="228.698" y2="76.5508" gradientUnits="userSpaceOnUse">
<stop stop-color="#70ACD9"/>
<stop offset="0.05" stop-color="#6DA8D7"/>
<stop offset="0.68" stop-color="#4A7DBE"/>
<stop offset="1" stop-color="#3D6DB4"/>
</linearGradient>
<linearGradient id="paint9_linear_1_215" x1="119.909" y1="-32.552" x2="228.698" y2="76.5508" gradientUnits="userSpaceOnUse">
<stop stop-color="#70ACD9"/>
<stop offset="0.05" stop-color="#6DA8D7"/>
<stop offset="0.68" stop-color="#4A7DBE"/>
<stop offset="1" stop-color="#3D6DB4"/>
</linearGradient>
<linearGradient id="paint10_linear_1_215" x1="119.909" y1="-32.552" x2="228.698" y2="76.5508" gradientUnits="userSpaceOnUse">
<stop stop-color="#70ACD9"/>
<stop offset="0.05" stop-color="#6DA8D7"/>
<stop offset="0.68" stop-color="#4A7DBE"/>
<stop offset="1" stop-color="#3D6DB4"/>
</linearGradient>
<linearGradient id="paint11_linear_1_215" x1="119.909" y1="-32.552" x2="228.698" y2="76.5507" gradientUnits="userSpaceOnUse">
<stop stop-color="#70ACD9"/>
<stop offset="0.05" stop-color="#6DA8D7"/>
<stop offset="0.68" stop-color="#4A7DBE"/>
<stop offset="1" stop-color="#3D6DB4"/>
</linearGradient>
<linearGradient id="paint12_linear_1_215" x1="119.909" y1="-32.552" x2="228.698" y2="76.5508" gradientUnits="userSpaceOnUse">
<stop stop-color="#70ACD9"/>
<stop offset="0.05" stop-color="#6DA8D7"/>
<stop offset="0.68" stop-color="#4A7DBE"/>
<stop offset="1" stop-color="#3D6DB4"/>
</linearGradient>
<linearGradient id="paint13_linear_1_215" x1="119.909" y1="-32.552" x2="228.698" y2="76.5508" gradientUnits="userSpaceOnUse">
<stop stop-color="#70ACD9"/>
<stop offset="0.05" stop-color="#6DA8D7"/>
<stop offset="0.68" stop-color="#4A7DBE"/>
<stop offset="1" stop-color="#3D6DB4"/>
</linearGradient>
<linearGradient id="paint14_linear_1_215" x1="119.909" y1="-32.552" x2="228.698" y2="76.5508" gradientUnits="userSpaceOnUse">
<stop stop-color="#70ACD9"/>
<stop offset="0.05" stop-color="#6DA8D7"/>
<stop offset="0.68" stop-color="#4A7DBE"/>
<stop offset="1" stop-color="#3D6DB4"/>
</linearGradient>
<linearGradient id="paint15_linear_1_215" x1="119.909" y1="-32.552" x2="228.698" y2="76.5508" gradientUnits="userSpaceOnUse">
<stop stop-color="#70ACD9"/>
<stop offset="0.05" stop-color="#6DA8D7"/>
<stop offset="0.68" stop-color="#4A7DBE"/>
<stop offset="1" stop-color="#3D6DB4"/>
</linearGradient>
<clipPath id="clip0_1_215">
<rect width="205.305" height="35" fill="white" transform="translate(69.2976 12.5)"/>
</clipPath>
</defs>
</svg>
